<?xml version="1.0" encoding="UTF-8"?><svg id="Layer_1" xmlns="http://www.w3.org/2000/svg" viewBox="0 0 495.93 115.66"><defs><style>.cls-1{fill:#183428;stroke-width:0px;}</style></defs><path class="cls-1" d="m46.07,37.73c0,5.75-7.81,10.86-19.72,10.86-10.03,0-26.35-5.11-26.35-23.53C0,5.58,15.43,0,25.94,0c8.63,0,16.02,2.17,19.25,3.81l-2.64,9.39c-.53,1.82-2.88,1.82-3.52-.12-1.29-3.87-3.52-10.5-13.09-10.5-10.62,0-14.55,9.92-14.55,21.65s5.05,21.77,15.08,21.77c11.21,0,15.49-7.8,15.49-13.14,2.41.76,4.11,2.52,4.11,4.87Z"/><path class="cls-1" d="m83.62,40.2l-3.17-7.8c-3.46-.18-6.87-.18-10.33-.18h-6.45c-2.35,0-3.17.35-3.52,1.23l-2.47,6.4c-.82,2.17-.7,3.81,1.41,4.52,1.99.65,2.99,1.76,2.99,3.4h-15.14c0-1.64.65-2.41,3.05-3.46,2.29-1.06,3.93-2.76,4.69-4.69L70.01.82h5.81c2.47,0,3.46.47,4.23,2.41l14.91,37.5c.82,2.05,1.94,3.17,3.34,3.64,1.94.7,2.99,1.76,2.99,3.4h-22.18c0-2.11,1.29-2.88,3.05-3.4,1.99-.59,2.29-2.11,1.47-4.17Zm-4.05-10.74l-9.1-22.71-8.04,21.3c-.41,1.06-.12,1.7,2.58,1.7h5.11c5.69,0,8.74-.18,9.45-.29Z"/><path class="cls-1" d="m155.92,47.77h-9.27c-5.63,0-6.51-1.76-7.98-7.22l-1.58-5.81c-1.53-5.52-3.29-7.98-9.68-7.98-4.87,0-6.04.29-6.04,3.11v10.56c0,2.7.7,3.11,2.76,3.93,1.94.76,2.99,1.76,2.99,3.4h-21.95c0-1.64,1.06-2.64,2.99-3.4,2.05-.82,2.76-1.23,2.76-3.93V8.74c0-3.05-.41-3.7-2.76-4.46-1.99-.64-2.99-1.88-2.99-3.46,4.58-.18,13.73-.29,22.12-.29,15.43,0,22.36,4.93,22.36,13.03,0,8.63-8.51,11.27-15.49,11.97,8.1,1.06,11.91,2.64,13.61,8.51l1.7,5.81c.65,2.29,1.23,3.99,3.7,4.58,1.88.47,2.76,1.11,2.76,2.41v.94Zm-17.31-34.04c0-7.1-3.64-10.62-11.09-10.62-3.93,0-6.16.18-6.16,2.46v15.96c0,1.7,2.23,2.41,6.4,2.41,6.92,0,10.86-2.46,10.86-10.21Z"/><path class="cls-1" d="m202.22,37.32v10.45h-42.49c0-1.64,1.06-2.64,2.99-3.4,2.05-.82,2.76-1.23,2.76-3.93V8.16c0-2.7-.7-3.11-2.76-3.93-1.94-.76-2.99-1.76-2.99-3.4h21.95c0,1.64-1.06,2.64-2.99,3.4-2.05.82-2.76,1.23-2.76,3.93v32.86c0,2.88.7,4.4,9.92,4.4s11.27-2.82,12.68-5.4c.94-1.7,1.53-2.7,3.7-2.7Zm12.38-12.79c0,5.52-4.4,9.39-13.03,9.39-9.62,0-11.56-3.52-11.56-6.1,0-2.82,1.64-4.81,3.46-4.99.88,6.34,4.23,8.63,8.27,8.63s6.87-1.64,6.87-4.93c0-2.7-1.29-3.81-8.98-6.75-6.04-2.29-8.74-5.16-8.74-10.68,0-5.81,5.05-9.1,12.03-9.1,4.75,0,9.15,1.29,11.15,2.23l-1.53,5.58c-.41,1.53-2.41,1.53-2.93-.29-.59-1.94-2.23-5.4-6.51-5.4-3.93,0-5.75,1.94-5.75,4.28,0,2.82,1.41,3.99,8.04,6.63,6.81,2.7,9.21,6.28,9.21,11.5Z"/><path class="cls-1" d="m264.95,35.21c0,9.15-8.51,12.85-24.82,12.85-8.16,0-16.9-.12-21.24-.29,0-1.58.94-2.7,2.88-3.34,1.88-.64,2.88-1.29,2.88-3.81V7.81c0-2.17-.88-2.88-2.76-3.58-2.11-.76-2.99-1.82-2.99-3.4,4.93-.18,14.44-.29,22.48-.29,16.02,0,21.65,5.52,21.65,12.21s-6.75,8.98-13.91,10.21c7.34,1.06,15.84,3.34,15.84,12.27ZM241.77,3.11c-3.4,0-5.81.29-6.69.53v16.43c0,.71,0,1.59,1.53,1.76,1.06.12,2.99.12,5.28.12,7.28,0,10.09-3.87,10.09-9.39s-2.88-9.45-10.21-9.45Zm12.15,32.1c0-6.34-3.99-10.45-10.27-10.45-2.29,0-4.58,0-5.81.18-2.41.29-2.76,1.23-2.76,2.23v14.08c0,3.34.65,4.17,7.86,4.17s10.97-3.64,10.97-10.21Z"/><path class="cls-1" d="m312.25,35.62v12.15h-40.84c0-1.64,1.06-2.64,2.99-3.4,2.05-.82,2.76-1.23,2.76-3.93V8.16c0-2.7-.7-3.11-2.76-3.93-1.94-.76-2.99-1.76-2.99-3.4h39.79v10.97c-1.94,0-3.34-.82-4.17-2.29-2-3.46-4.4-6.4-8.86-6.4h-10.56v18.95l19.89-.53c0,1.82-1.17,5.58-4.52,5.58-3.17,0-8.04-2.76-15.37-2.76v16.49c0,2.64.18,4.58,8.74,4.58s10.39-3.99,12.73-7.98c.94-1.58,1.99-1.82,3.17-1.82Z"/><path class="cls-1" d="m370.17,47.77h-9.27c-5.63,0-6.51-1.76-7.98-7.22l-1.58-5.81c-1.53-5.52-3.29-7.98-9.68-7.98-4.87,0-6.04.29-6.04,3.11v10.56c0,2.7.7,3.11,2.76,3.93,1.94.76,2.99,1.76,2.99,3.4h-21.95c0-1.64,1.06-2.64,2.99-3.4,2.05-.82,2.76-1.23,2.76-3.93V8.74c0-3.05-.41-3.7-2.76-4.46-1.99-.64-2.99-1.88-2.99-3.46,4.58-.18,13.73-.29,22.12-.29,15.43,0,22.36,4.93,22.36,13.03,0,8.63-8.51,11.27-15.49,11.97,8.1,1.06,11.91,2.64,13.61,8.51l1.7,5.81c.65,2.29,1.23,3.99,3.7,4.58,1.88.47,2.76,1.11,2.76,2.41v.94Zm-17.31-34.04c0-7.1-3.64-10.62-11.09-10.62-3.93,0-6.16.18-6.16,2.46v15.96c0,1.7,2.23,2.41,6.4,2.41,6.92,0,10.86-2.46,10.86-10.21Z"/><path class="cls-1" d="m418.47,25.53v22.65h-1.12c-1.11,0-1.76-.47-2.46-1.64l-1.35-2.23c-1.06-1.7-2.17-1.06-3.11-.23-2.05,1.82-4.99,4.52-12.73,4.52-10.45,0-25.7-5.46-25.7-24.41S386.78.06,397.52.06s18.31,2.52,20.07,3.52l-2.41,7.57c-.53,1.58-2.99,2.05-4.22-.18-1.35-2.46-3.93-8.33-13.44-8.33s-14.14,6.98-14.14,21.54,5.99,21.83,13.73,21.83,10.92-3.52,10.92-5.81v-18.49h6.4c2.88,0,4.05,1.41,4.05,3.81Z"/><path class="cls-1" d="m5.1,111.43c2.05-.82,2.76-1.23,2.76-3.93v-32.28c0-2.7-.7-3.11-2.76-3.93-1.94-.76-2.99-1.76-2.99-3.4h39.79v12.03c-2.29,0-3.7-.94-4.64-2.58-2.35-3.99-4.58-7.16-9.86-7.16h-9.1v19.19l19.89-.53c0,1.82-1.17,5.58-4.52,5.58-3.17,0-8.04-2.76-15.37-2.76v15.84c0,2.7.7,3.11,2.76,3.93,1.94.76,2.99,1.76,2.99,3.4H2.11c0-1.64,1.06-2.64,2.99-3.4Z"/><path class="cls-1" d="m71.24,67.07c13.32,0,25.12,6.69,25.12,24.29s-11.79,24.29-25.12,24.29-25.12-6.69-25.12-24.29,11.79-24.29,25.12-24.29Zm-13.73,24.29c0,14.79,4.81,21.71,13.73,21.71s13.73-6.92,13.73-21.71-4.81-21.71-13.73-21.71-13.73,6.93-13.73,21.71Z"/><path class="cls-1" d="m151.93,71.29c-2.05.82-2.76,1.23-2.76,3.93v40.2c-2.64,0-3.46-.47-4.11-1.82-.53-1.11-1.11-2.35-2.35-2.35-2.23,0-6.69,4.4-16.08,4.4-11.62,0-21.42-3.34-21.42-14.44v-26c0-2.7-.7-3.11-2.76-3.93-1.94-.76-2.99-1.76-2.99-3.4h21.95c0,1.64-1.06,2.64-2.99,3.4-2.05.82-2.76,1.23-2.76,3.93v26.88c0,7.45,6.28,10.97,11.38,10.97,6.34,0,11.68-2.7,11.68-7.75v-30.1c0-2.7-.7-3.11-2.76-3.93-1.94-.76-2.99-1.76-2.99-3.4h21.95c0,1.64-1.06,2.64-2.99,3.4Z"/><path class="cls-1" d="m207.79,71.29c-2.05.82-2.76,1.23-2.76,3.93v39.61h-4.58c-2.11,0-3.87-1.11-5.46-3.23l-26.88-34.97v30.87c0,2.7.7,3.11,2.76,3.93,1.94.76,2.99,1.76,2.99,3.4h-15.02c0-1.64,1.06-2.64,2.99-3.4,2.05-.82,2.76-1.23,2.76-3.93v-32.28c0-2.7-.7-3.11-2.76-3.93-1.94-.76-2.99-1.76-2.99-3.4h12.03c1.94,0,3.52.47,5.46,2.93l25.17,32.22v-27.81c0-2.7-.7-3.11-2.76-3.93-1.94-.76-2.99-1.76-2.99-3.4h15.02c0,1.64-1.06,2.64-2.99,3.4Z"/><path class="cls-1" d="m234.14,115.13c-5.57,0-14.26-.12-19.31-.29,0-1.64.82-2.52,2.76-3.29,2.7-1.06,2.99-1.7,2.99-4.52v-31.34c0-2.82-.29-3.46-2.99-4.52-1.94-.76-2.76-1.64-2.76-3.29,5.05-.18,13.73-.29,19.31-.29,17.19,0,31.22,4.58,31.22,23.77s-14.02,23.77-31.22,23.77Zm1.41-2.58c12.03,0,18.43-5.75,18.43-21.18s-6.4-21.18-18.43-21.18c-3.23,0-4.75,1-4.75,4.23v33.92c0,3.23,1.53,4.22,4.75,4.22Z"/><path class="cls-1" d="m300.51,107.26l-3.17-7.8c-3.46-.18-6.87-.18-10.33-.18h-6.45c-2.35,0-3.17.35-3.52,1.23l-2.47,6.4c-.82,2.17-.7,3.81,1.41,4.52,1.99.65,2.99,1.76,2.99,3.4h-15.14c0-1.64.65-2.41,3.05-3.46,2.29-1.06,3.93-2.76,4.69-4.69l15.32-38.79h5.81c2.47,0,3.46.47,4.23,2.41l14.91,37.5c.82,2.05,1.94,3.17,3.34,3.64,1.94.7,2.99,1.76,2.99,3.4h-22.18c0-2.11,1.29-2.88,3.05-3.4,1.99-.59,2.29-2.11,1.47-4.17Zm-4.05-10.74l-9.1-22.71-8.04,21.3c-.41,1.06-.12,1.7,2.58,1.7h5.11c5.69,0,8.74-.18,9.45-.29Z"/><path class="cls-1" d="m318.76,76.51c-.47,1.99-1.47,3.46-4.58,3.46v-12.09h44.95v12.09c-3.11,0-4.11-1.47-4.58-3.46-.7-2.88-1.94-6.34-7.63-6.34h-5.05v37.32c0,2.7.7,3.11,2.76,3.93,1.94.76,2.99,1.76,2.99,3.4h-21.95c0-1.64,1.06-2.64,2.99-3.4,2.05-.82,2.76-1.23,2.76-3.93v-37.32h-5.05c-5.69,0-6.92,3.46-7.63,6.34Z"/><path class="cls-1" d="m367.06,111.43c2.05-.82,2.76-1.23,2.76-3.93v-32.28c0-2.7-.7-3.11-2.76-3.93-1.94-.76-2.99-1.76-2.99-3.4h21.95c0,1.64-1.06,2.64-2.99,3.4-2.05.82-2.76,1.23-2.76,3.93v32.28c0,2.7.7,3.11,2.76,3.93,1.94.76,2.99,1.76,2.99,3.4h-21.95c0-1.64,1.06-2.64,2.99-3.4Z"/><path class="cls-1" d="m415.3,67.07c13.32,0,25.12,6.69,25.12,24.29s-11.8,24.29-25.12,24.29-25.12-6.69-25.12-24.29,11.79-24.29,25.12-24.29Zm-13.73,24.29c0,14.79,4.81,21.71,13.73,21.71s13.73-6.92,13.73-21.71-4.81-21.71-13.73-21.71-13.73,6.93-13.73,21.71Z"/><path class="cls-1" d="m492.93,71.29c-2.05.82-2.76,1.23-2.76,3.93v39.61h-4.58c-2.11,0-3.87-1.11-5.46-3.23l-26.88-34.97v30.87c0,2.7.7,3.11,2.76,3.93,1.94.76,2.99,1.76,2.99,3.4h-15.02c0-1.64,1.06-2.64,2.99-3.4,2.05-.82,2.76-1.23,2.76-3.93v-32.28c0-2.7-.7-3.11-2.76-3.93-1.94-.76-2.99-1.76-2.99-3.4h12.03c1.94,0,3.52.47,5.46,2.93l25.18,32.22v-27.81c0-2.7-.7-3.11-2.76-3.93-1.94-.76-2.99-1.76-2.99-3.4h15.02c0,1.64-1.06,2.64-2.99,3.4Z"/></svg>